<svg height="512" viewBox="0 0 512.004 512.004" width="512" xmlns="http://www.w3.org/2000/svg"><path d="M290.429 197.398a15.074 15.074 0 00-1.657-14.028c-5.776-8.358-16.868-8.85-24.343-1.739-19.65 18.694-39.094 37.005-58.653 55.537-3.775 3.577-5.638 8.435-5.109 13.327.523 4.846 3.338 9.143 7.724 11.792 9.344 5.643 18.762 10.954 28.098 16.29-5.28 12.593-10.132 23.632-14.919 36.002-2.888 7.462.419 15.744 7.692 19.264 5.71 2.763 12.302 2.227 18.299-3.481 19.418-18.485 39.243-37.119 58.671-55.548 3.818-3.622 5.673-8.512 5.089-13.416-.591-4.96-3.594-9.337-8.238-12.008-9.198-5.29-18.373-10.623-27.558-15.937 5.004-11.756 10.2-23.91 14.904-36.055zm-30.889 35.324c-1.794 4.239-.292 8.651 3.74 10.979 10.78 6.223 21.534 12.489 32.325 18.693 1.106.636 1.137.746.303 1.537-15.796 14.985-58.596 55.965-59.934 56.487-.146-.056-.507-.189-.415-.426 5.319-13.747 10.945-26.597 16.921-40.738 1.488-3.521.899-8.275-3.771-10.964-10.838-6.239-21.799-12.342-32.565-18.844-.801-.484-.767-.71-.051-1.388 20.872-19.776 57.958-55.301 59.803-56.46.397.085.544.299.546.384-5.31 13.69-11.213 27.299-16.902 40.74zm252.327-54.246a7.502 7.502 0 00-8.781-5.948l-49.698 9.56c-23.133 4.442-47.564-.609-67.036-13.855l-29.387-19.995a7.5 7.5 0 00-8.439 12.401l29.388 19.996c22.756 15.484 51.355 21.361 78.305 16.184l49.7-9.561a7.5 7.5 0 005.948-8.782zm-360.259-51.234l111.413-26.994a24.062 24.062 0 007.468 7.295l56.412 38.382c3.389 2.31 8.069 1.472 10.419-1.982a7.499 7.499 0 00-1.982-10.419l-56.559-38.482c-2.128-1.406-3.676-3.03-4.383-5.565-.443-1.591-.598-4.339 1.249-7.176.047-.073.103-.141.22-.286 3.877-4.782 9.392-4.516 15.004-2.639l78.588 23.54c3.969 1.19 8.148-1.063 9.337-5.031s-1.063-8.148-5.031-9.337l-78.161-23.412c-11.245-4.784-24.125-1.72-31.424 7.476-3 3.779-4.806 8.425-5.079 13.151l-111.077 26.913C141.49 114.331 135 109.324 135 102.532c0-3.97 2.205-7.552 5.749-9.344l150.183-75.771a22.463 22.463 0 0118.695-.719l126.834 52.168a66.197 66.197 0 0011.404 3.54c6.235 1.327 13.18 2.25 19.449 1.299l38.45-6.58a7.5 7.5 0 10-2.531-14.785l-38.048 6.511a52.328 52.328 0 01-13.747-1.029c-3.226-.677-6.236-1.569-9.267-2.826L315.339 2.828a37.441 37.441 0 00-31.165 1.199L133.988 79.8c-8.627 4.362-13.986 13.073-13.986 22.732 0 16.266 15.689 28.781 31.606 24.71zm41.184 214.055a7.498 7.498 0 002.288 10.356c18.188 11.605 39.254 17.74 60.922 17.74 62.524 0 113.392-50.867 113.392-113.392s-50.867-113.392-113.392-113.392S142.61 193.476 142.61 256.001c0 27.513 9.977 54.047 28.093 74.713a7.5 7.5 0 0011.28-9.887 98.303 98.303 0 01-24.373-64.826c0-54.253 44.138-98.392 98.392-98.392s98.392 44.138 98.392 98.392c0 54.253-44.138 98.392-98.392 98.392-18.804 0-37.081-5.32-52.853-15.385a7.499 7.499 0 00-10.357 2.289zm167.604 43.466l-111.413 26.995a24.065 24.065 0 00-7.468-7.296l-107.423-73.09c-22.746-15.475-51.286-21.375-78.305-16.185l-49.7 9.561a7.501 7.501 0 00-5.949 8.782 7.502 7.502 0 008.782 5.948l49.698-9.561c23.13-4.443 47.563.607 67.037 13.856.194.132 107.692 73.275 107.896 73.399 3.98 2.42 6.216 7.674 2.947 12.325-3.597 5.117-9.859 5.008-15.363 3.129l-46.451-13.909c-10.719-3.21-21.428-6.42-32.137-9.63a7.5 7.5 0 10-4.308 14.367c10.711 3.212 21.421 6.422 32.144 9.633l46.018 13.779c10.923 4.673 23.854 1.835 31.428-7.479 3.052-3.753 4.804-8.397 5.075-13.146l111.079-26.913c6.459-1.657 13.021 3.299 13.021 10.144 0 3.971-2.205 7.552-5.749 9.344l-150.183 75.772a22.454 22.454 0 01-18.696.718L75.541 443.139c-3.668-1.512-7.54-2.487-11.404-3.541-5.911-1.612-13.314-2.221-19.449-1.298l-38.45 6.579a7.498 7.498 0 00-6.127 8.657 7.5 7.5 0 008.658 6.128l38.048-6.511a52.622 52.622 0 0114.255 1.128 51.846 51.846 0 018.758 2.728l126.837 52.168a37.449 37.449 0 0031.165-1.198l150.186-75.773c8.627-4.363 13.986-13.073 13.986-22.733-.002-16.549-15.799-28.742-31.608-24.71z"/></svg>