<svg xmlns="http://www.w3.org/2000/svg" width="512" height="512" viewBox="0 0 448 448"><path d="M367.191 208c-4.95-49.84-32.808-92.89-72.85-118.63L272 0H144l-22.36 89.443C77.387 117.905 48 167.474 48 224c0 56.525 29.386 106.093 73.64 134.556L144 448h128l22.342-89.371c40.041-25.742 67.899-68.791 72.849-118.629H400v-32h-32.809zM208 352c-70.58 0-128-57.421-128-128S137.42 96 208 96s128 57.421 128 128-57.42 128-128 128z" fill="red" data-original="#000000" xmlns="http://www.w3.org/2000/svg"/><path fill="red" data-original="#000000" d="M224 225.231V144h-32v91.088l40.383 58.271 26.161-18.095z" xmlns="http://www.w3.org/2000/svg"/></svg>