<svg xmlns="http://www.w3.org/2000/svg" viewBox="0 0 512 512"><path d="M431.862 317.611c-3.493-1.193-7.235.069-9.353 2.862l-19.483-14.763-28.877 5.862-.329-.98a8.354 8.354 0 00-15.841 5.309l15.043 44.882-17.02 30.432a22.415 22.415 0 00-6.414 3.627c-4.444 3.578-9.915 10.751-10.741 24.605a8.349 8.349 0 008.338 8.85h49.724a8.353 8.353 0 007.905-5.653l32.253-94.429a8.352 8.352 0 00-5.205-10.604zm-244.338-6.921a8.363 8.363 0 00-8.807 5.888l-17.217-5.225-.023-2.617a8.353 8.353 0 00-8.351-8.278h-.076a8.353 8.353 0 00-8.278 8.428l.752 84.245c-11.279 14.18-14.454 23.033-14.793 24.042a8.352 8.352 0 007.917 11.016h38.177a8.352 8.352 0 008.313-7.539l9.886-100.834a8.354 8.354 0 00-7.5-9.126zm316.025-46.396a8.354 8.354 0 01-8.35-8.743c2.62-56.134-50.71-98.249-51.249-98.668a8.35 8.35 0 01-1.47-11.72 8.35 8.35 0 0111.72-1.47c2.481 1.927 60.705 47.942 57.687 112.637a8.353 8.353 0 01-8.338 7.964z" fill="#512807"/><path d="M505.036 320.563l-28.629-59.047c8.856-37.127 7.02-68.788-5.468-94.14-12.099-24.56-31.645-37.863-45.913-44.698-21.196-10.155-67.38-6.031-104.489-2.719-17.488 1.561-35.571 3.173-41.262 2.057-6.902-1.359-19.105-8.342-30.908-15.097-17.604-10.073-37.555-21.49-53.815-23.077-27.991-2.732-79.858 35.328-85.679 39.676a8.316 8.316 0 00-3.222 5.255l-5.065-.885c.012-.068.03-.134.04-.202a8.354 8.354 0 00-7.025-9.496c-4.978-.743-49.144-6.766-66.1 10.761C-2.539 160.003-.98 203.229.825 253.284l.155 4.315c.832 23.393 6.689 38.66 17.409 45.377 4.515 2.83 8.997 3.594 12.709 3.603 4.796 12.125 17.067 35.057 41.467 35.778.307.009.614.013.921.013 9.557 0 18.992-4.388 27.341-12.731 7.333-7.326 13.513-17.417 18.23-29.231 14.31 9.142 43.587 25.104 77.914 28.484 9.178 24.278 17.92 51.991 17.23 57.702-.384 2.839-2.026 5.007-4.893 8.597-4.169 5.219-9.878 12.365-9.878 24.646a8.353 8.353 0 008.353 8.353h33.471a8.353 8.353 0 008.337-7.85l5.515-91.28c2.67.055 5.352.081 8.045.081 56.018 0 115.666-11.235 131.548-14.443 22.177 17.098 47.047 25.482 59.551 28.886-2.893 15.757-6.649 32.127-8.905 37.006-19.302 10.5-20.516 31.269-18.362 41.044a8.353 8.353 0 008.157 6.555h39.298a8.354 8.354 0 008.12-6.393l23.081-95.629a8.357 8.357 0 00-.603-5.604z" fill="#a86b38"/><path d="M505.036 320.563l-28.629-59.047c8.856-37.127 7.02-68.788-5.468-94.14-12.099-24.56-31.645-37.863-45.913-44.698-13.857-6.639-38.394-7.174-64.093-5.824 13.563 3.18 32.718 10.726 38.208 13.356 29.942 14.345 66.746 50.525 46.161 132.241l29.942 61.755-25.096 103.982h24.291a8.354 8.354 0 008.12-6.393l23.08-95.628a8.357 8.357 0 00-.603-5.604zm-384.088-80.958h-.213c-11.743-.025-21.634 8.841-22.814 20.525-3.018 29.893-24.828 63.231-42.098 77.679 4.808 2.64 10.356 4.359 16.743 4.549.307.009.614.013.921.013 9.557 0 18.992-4.388 27.341-12.731 7.32-7.313 13.491-17.381 18.203-29.167 6.585-21.192 8.679-43.889 1.917-60.868z" fill="#8c4a14"/><path d="M38.35 267.165c-10.758-11.036-27.785-8.53-29.689-8.208a8.355 8.355 0 00-6.907 9.193c2.07 17.979 7.943 29.861 17.455 35.311a23.277 23.277 0 0011.69 3.112c4.928 0 8.545-1.492 9.175-1.771a8.352 8.352 0 004.828-6.043c2.683-13.754.479-24.384-6.552-31.594z" fill="#2a2a2c"/><path d="M37.65 217.021c-5.255 0-9.529-4.268-9.529-9.514 0-5.247 4.275-9.515 9.529-9.515s9.529 4.268 9.529 9.515c0 5.246-4.274 9.514-9.529 9.514z"/><path d="M116.003 98.405a8.352 8.352 0 00-8.879-5.894 8.351 8.351 0 00-7.444 7.627c-2.715 33.259-42.084 54.952-42.682 55.277a8.352 8.352 0 00-3.411 11.303s6.807 23.894 10.381 32.284a8.338 8.338 0 001.221 2.426 8.342 8.342 0 006.749 3.421 8.32 8.32 0 004.923-1.609c1.225-.897 30.113-22.114 40.314-37.941 12.581-19.522.273-62.103-1.172-66.894z" fill="#2a2a2c"/></svg>