<svg height="512" viewBox="0 0 74 74" width="512" xmlns="http://www.w3.org/2000/svg"><path d="M71 47.57a1 1 0 01-1-1v-2.91a1 1 0 012 0v2.91a1 1 0 01-1 1z"/><path d="M66 72H8a6.006 6.006 0 01-6-6V8a6.006 6.006 0 016-6h58a6.006 6.006 0 016 6v18.69a1 1 0 01-2 0V8a4 4 0 00-4-4H8a4 4 0 00-4 4v58a4 4 0 004 4h58a4 4 0 004-4V53.57a1 1 0 112 0V66a6.006 6.006 0 01-6 6z"/><path d="M71 37.66a1 1 0 01-1-1v-2.97a1 1 0 012 0v2.97a1 1 0 01-1 1zM44.583 24a1 1 0 01-.62-.216L37 18.275l-6.963 5.509a1 1 0 01-1.62-.784V3a1 1 0 011-1h15.166a1 1 0 011 1v20a1 1 0 01-1 1zM37 16a1 1 0 01.62.216l5.963 4.718V4H30.417v16.934l5.963-4.718A1 1 0 0137 16zm-7.742 46.319a1 1 0 01-1-1V47.684a1 1 0 012 0v13.635a1 1 0 01-1 1z"/><path d="M33 52.4a1 1 0 01-.707-.293l-3.035-3.035-3.035 3.038a1 1 0 11-1.414-1.41l3.742-3.742a1 1 0 011.414 0l3.742 3.742A1 1 0 0133 52.4zm-17.651 9.919a1 1 0 01-1-1V47.684a1 1 0 012 0v13.635a1 1 0 01-1 1z"/><path d="M19.091 52.4a1 1 0 01-.707-.293l-3.035-3.035-3.036 3.038A1 1 0 0110.9 50.7l3.743-3.742a1 1 0 011.414 0L19.8 50.7a1 1 0 01-.707 1.707z"/></svg>