<svg xmlns="http://www.w3.org/2000/svg" width="512" height="512"><g fill="#c1c1c1" xmlns="http://www.w3.org/2000/svg"><path d="M444.589 224.89c-5.523 0-10 4.478-10 10v34.964c0 83.218-29.446 145.706-87.521 185.729-42.32 29.164-85.071 35.583-91.122 36.362-6.068-.713-48.838-6.649-90.969-35.381-58.105-39.624-87.566-102.442-87.566-186.71V89.192a3.799 3.799 0 013.799-3.791c42.223 0 78.438-34.164 98.141-65.401h153.297c19.701 31.237 55.894 65.401 98.06 65.401 2.104 0 3.88 1.736 3.88 3.791v55.285c0 5.523 4.477 10 10 10s10-4.477 10-10V89.192c0-13.118-10.713-23.791-23.88-23.791-35.923 0-67.584-32.551-83.782-60.426A9.998 9.998 0 00338.28 0H173.72a9.998 9.998 0 00-8.646 4.976c-16.197 27.875-47.879 60.426-83.863 60.426-13.123 0-23.799 10.673-23.799 23.791v180.661c0 50.474 10.268 94.639 30.519 131.267 16.339 29.552 39.117 54.201 67.703 73.265C206.057 508.011 255.561 512 256 512c.431 0 50.103-4.7 100.406-38.58 28.563-19.238 51.326-43.914 67.657-73.343 20.256-36.502 30.526-80.315 30.526-130.224V234.89c0-5.523-4.477-10-10-10z" data-original="#000000"/><path d="M453.82 186.04c-1.582-3.8-5.424-6.297-9.545-6.165-4.115.132-7.839 2.869-9.15 6.778-1.327 3.956-.036 8.451 3.25 11.045 3.281 2.59 7.936 2.855 11.491.657 4.122-2.547 5.785-7.851 3.954-12.315zM319.847 53.805a10.004 10.004 0 00-7.85-3.805H200a9.997 9.997 0 00-7.849 3.804c-22.007 27.877-49.589 47.961-77.665 56.552a10 10 0 00-7.074 9.563v149.935c0 72.462 24.207 126.353 71.949 160.174 30.521 21.622 62.323 29.075 74.579 31.276a10.066 10.066 0 003.646-.021c12.316-2.356 44.278-10.209 74.998-32.188 47.78-34.181 72.006-87.758 72.006-159.242v-149.92c0-4.396-2.872-8.277-7.076-9.563-28.07-8.583-55.652-28.672-77.667-56.565zm64.742 216.048c0 64.661-21.413 112.765-63.643 142.977-26.096 18.67-53.183 25.951-65.297 28.447-12.03-2.341-38.892-9.267-64.728-27.57-42.143-29.854-63.51-78.254-63.51-143.854V127.116c34.99-12.694 60.837-37.07 77.369-57.116h102.437c16.537 20.058 42.385 44.443 77.372 57.133z" data-original="#000000"/><path d="M276.299 142.653a10.001 10.001 0 00-18.623-5.064l-77.669 132.248a10.001 10.001 0 008.623 15.064h47.07v82.658a9.998 9.998 0 0010 10c3.481 0 6.795-1.825 8.622-4.936l77.668-132.248a10.001 10.001 0 00-8.623-15.064h-47.07v-82.658zm29.6 102.658L255.7 330.786v-55.885c0-5.522-4.477-10-10-10h-39.6l50.199-85.475v55.885c0 5.523 4.477 10 10 10z" data-original="#000000"/></g></svg>