<svg xmlns="http://www.w3.org/2000/svg" width="512" height="512"><path d="M463.5 467H441v-39.461c9.247-2.796 16-11.392 16-21.539 0-5.758-2.177-11.016-5.747-15 3.571-3.984 5.747-9.242 5.747-15s-2.177-11.016-5.747-15c3.571-3.984 5.747-9.242 5.747-15s-2.177-11.016-5.747-15c3.571-3.984 5.747-9.242 5.747-15s-2.177-11.016-5.747-15c3.571-3.984 5.747-9.242 5.747-15s-2.177-11.016-5.747-15c3.571-3.984 5.747-9.242 5.747-15s-2.177-11.016-5.747-15c3.571-3.984 5.747-9.242 5.747-15s-2.177-11.016-5.747-15c3.571-3.984 5.747-9.242 5.747-15s-2.177-11.016-5.747-15c3.571-3.984 5.747-9.242 5.747-15s-2.177-11.016-5.747-15c3.571-3.984 5.747-9.242 5.747-15s-2.177-11.016-5.747-15A22.406 22.406 0 00457 106c0-10.147-6.753-18.743-16-21.539v-4.294a7.5 7.5 0 00-15 0V83.5H198a7.5 7.5 0 000 15h236.5c4.136 0 7.5 3.364 7.5 7.5s-3.364 7.5-7.5 7.5h-302c-4.136 0-7.5-3.364-7.5-7.5s3.364-7.5 7.5-7.5H166a7.5 7.5 0 000-15h-25V45h285v2.833a7.5 7.5 0 0015 0V45h22.5c12.407 0 22.5-10.093 22.5-22.5S475.907 0 463.5 0h-360C91.093 0 81 10.093 81 22.5S91.093 45 103.5 45H126v39.461c-9.247 2.796-16 11.392-16 21.539 0 5.758 2.177 11.016 5.747 15-3.571 3.984-5.747 9.242-5.747 15s2.177 11.016 5.747 15c-3.571 3.984-5.747 9.242-5.747 15s2.177 11.016 5.747 15c-3.571 3.984-5.747 9.242-5.747 15s2.177 11.016 5.747 15c-3.571 3.984-5.747 9.242-5.747 15s2.177 11.016 5.747 15c-3.571 3.984-5.747 9.242-5.747 15s2.177 11.016 5.747 15A22.406 22.406 0 00110 286c0 2.629.458 5.153 1.29 7.5H48.5C36.093 293.5 26 303.593 26 316s10.093 22.5 22.5 22.5h62.79A22.38 22.38 0 00110 346c0 5.758 2.177 11.016 5.747 15-3.571 3.984-5.747 9.242-5.747 15s2.177 11.016 5.747 15A22.406 22.406 0 00110 406c0 10.147 6.753 18.743 16 21.539V467h-22.5C91.093 467 81 477.093 81 489.5S91.093 512 103.5 512h360c12.407 0 22.5-10.093 22.5-22.5S475.907 467 463.5 467zm-360-437c-4.136 0-7.5-3.364-7.5-7.5s3.364-7.5 7.5-7.5h360c4.136 0 7.5 3.364 7.5 7.5s-3.364 7.5-7.5 7.5h-360zm331 323.5h-302c-4.136 0-7.5-3.364-7.5-7.5s3.364-7.5 7.5-7.5h302c4.136 0 7.5 3.364 7.5 7.5s-3.364 7.5-7.5 7.5zM442 376c0 4.136-3.364 7.5-7.5 7.5h-302c-4.136 0-7.5-3.364-7.5-7.5s3.364-7.5 7.5-7.5h302c4.136 0 7.5 3.364 7.5 7.5zM132.5 128.5h302c4.136 0 7.5 3.364 7.5 7.5s-3.364 7.5-7.5 7.5h-302c-4.136 0-7.5-3.364-7.5-7.5s3.364-7.5 7.5-7.5zm0 30h302c4.136 0 7.5 3.364 7.5 7.5s-3.364 7.5-7.5 7.5h-302c-4.136 0-7.5-3.364-7.5-7.5s3.364-7.5 7.5-7.5zm0 30h302c4.136 0 7.5 3.364 7.5 7.5s-3.364 7.5-7.5 7.5h-302c-4.136 0-7.5-3.364-7.5-7.5s3.364-7.5 7.5-7.5zm0 30h302c4.136 0 7.5 3.364 7.5 7.5s-3.364 7.5-7.5 7.5h-302c-4.136 0-7.5-3.364-7.5-7.5s3.364-7.5 7.5-7.5zm0 30h302c4.136 0 7.5 3.364 7.5 7.5s-3.364 7.5-7.5 7.5h-302c-4.136 0-7.5-3.364-7.5-7.5s3.364-7.5 7.5-7.5zm0 30h302c4.136 0 7.5 3.364 7.5 7.5s-3.364 7.5-7.5 7.5h-302c-4.136 0-7.5-3.364-7.5-7.5s3.364-7.5 7.5-7.5zm-84 45c-4.136 0-7.5-3.364-7.5-7.5s3.364-7.5 7.5-7.5h386c4.136 0 7.5 3.364 7.5 7.5s-3.364 7.5-7.5 7.5h-386zM125 406c0-4.136 3.364-7.5 7.5-7.5h302c4.136 0 7.5 3.364 7.5 7.5s-3.364 7.5-7.5 7.5h-44.167a7.5 7.5 0 000 15H426V467H141v-38.5h217a7.5 7.5 0 000-15H132.5c-4.136 0-7.5-3.364-7.5-7.5zm338.5 91h-360c-4.136 0-7.5-3.364-7.5-7.5s3.364-7.5 7.5-7.5h360c4.136 0 7.5 3.364 7.5 7.5s-3.364 7.5-7.5 7.5z" fill="#c1c1c1" data-original="#000000" xmlns="http://www.w3.org/2000/svg"/></svg>