<?xml version="1.0"?>
<svg xmlns="http://www.w3.org/2000/svg" xmlns:xlink="http://www.w3.org/1999/xlink" xmlns:svgjs="http://svgjs.com/svgjs" version="1.1" width="512" height="512" x="0" y="0" viewBox="0 0 512 512" style="enable-background:new 0 0 512 512" xml:space="preserve" class=""><g><g xmlns="http://www.w3.org/2000/svg"><g><path d="m444.589 224.89c-5.523 0-10 4.478-10 10v34.964c0 83.218-29.446 145.706-87.521 185.729-42.32 29.164-85.071 35.583-91.122 36.362-6.068-.713-48.838-6.649-90.969-35.381-58.105-39.624-87.566-102.442-87.566-186.71v-180.662c0-2.091 1.704-3.791 3.799-3.791 42.223 0 78.438-34.164 98.141-65.401h153.297c19.701 31.237 55.894 65.401 98.06 65.401 2.104 0 3.88 1.736 3.88 3.791v55.285c0 5.523 4.477 10 10 10s10-4.477 10-10v-55.285c0-13.118-10.713-23.791-23.88-23.791-35.923 0-67.584-32.551-83.782-60.426-1.789-3.08-5.083-4.975-8.646-4.975h-164.56c-3.563 0-6.856 1.895-8.646 4.976-16.197 27.875-47.879 60.426-83.863 60.426-13.123 0-23.799 10.673-23.799 23.791v180.661c0 50.474 10.268 94.639 30.519 131.267 16.339 29.552 39.117 54.201 67.703 73.265 50.423 33.625 99.927 37.614 100.366 37.614.431 0 50.103-4.7 100.406-38.58 28.563-19.238 51.326-43.914 67.657-73.343 20.256-36.502 30.526-80.315 30.526-130.224v-34.963c0-5.523-4.477-10-10-10z" fill="#c1c1c1" data-original="#000000" style=""/><path d="m453.82 186.04c-1.582-3.8-5.424-6.297-9.545-6.165-4.115.132-7.839 2.869-9.15 6.778-1.327 3.956-.036 8.451 3.25 11.045 3.281 2.59 7.936 2.855 11.491.657 4.122-2.547 5.785-7.851 3.954-12.315z" fill="#c1c1c1" data-original="#000000" style=""/><path d="m319.847 53.805c-1.897-2.402-4.789-3.805-7.85-3.805h-111.997c-3.061 0-5.953 1.401-7.849 3.804-22.007 27.877-49.589 47.961-77.665 56.552-4.204 1.286-7.074 5.167-7.074 9.563v149.935c0 72.462 24.207 126.353 71.949 160.174 30.521 21.622 62.323 29.075 74.579 31.276.585.104 1.176.157 1.767.157.629 0 1.258-.06 1.879-.178 12.316-2.356 44.278-10.209 74.998-32.188 47.78-34.181 72.006-87.758 72.006-159.242v-149.92c0-4.396-2.872-8.277-7.076-9.563-28.07-8.583-55.652-28.672-77.667-56.565zm64.742 216.048c0 64.661-21.413 112.765-63.643 142.977-26.096 18.67-53.183 25.951-65.297 28.447-12.03-2.341-38.892-9.267-64.728-27.57-42.143-29.854-63.51-78.254-63.51-143.854v-142.737c34.99-12.694 60.837-37.07 77.369-57.116h102.437c16.537 20.058 42.385 44.443 77.372 57.133z" fill="#c1c1c1" data-original="#000000" style=""/><path d="m276.299 142.653c0-4.513-3.022-8.466-7.376-9.649-4.354-1.184-8.962.695-11.247 4.585l-77.669 132.248c-1.816 3.093-1.837 6.92-.056 10.032s5.093 5.032 8.679 5.032h47.07v82.658c0 4.513 3.022 8.466 7.376 9.649.871.237 1.753.351 2.624.351 3.481 0 6.795-1.825 8.622-4.936l77.668-132.248c1.816-3.093 1.837-6.92.056-10.032s-5.093-5.032-8.679-5.032h-47.07v-82.658zm29.6 102.658-50.199 85.475v-55.885c0-5.522-4.477-10-10-10h-39.6l50.199-85.475v55.885c0 5.523 4.477 10 10 10z" fill="#c1c1c1" data-original="#000000" style=""/></g></g></g></svg>
